# xmcd CD database file
#
# Track frame offsets:
#	150
#	5750
#	67295
#	75600
#	104548
#	171588
#	181160
#	244643
#	299165
#	315840
#	318910
#
# Disc length: 4291 seconds
#
# Revision: 0
# Processed by: cddbd v1.5.1PL0 Copyright (c) Steve Scherf et al.
# Submitted via: CDex 1.51
#
DISCID=9c10c10b
DTITLE=S.S.D.S. - 愛の解体新書II
DYEAR=2004
DGENRE=Comedy
TTITLE0=診察１
TTITLE1=サロン・ド・ジョイ　Ｐａｒｔ１
TTITLE2=♪「刹那の英雄（あこがれ）」
TTITLE3=サロン・ド・ジョイ　Ｐａｒｔ２
TTITLE4=７Ｇよ再び
TTITLE5=診察２
TTITLE6=ナノ！？なの？
TTITLE7=日独機械合戦〜前編〜
TTITLE8=再診予約
TTITLE9=Ｓ．Ｓ．Ｃ．Ｒ．　〜スーパースタイリッシュキャストロール
TTITLE10=次回予告
EXTD=YEAR: 2004
EXTT0=
EXTT1=
EXTT2=
EXTT3=
EXTT4=
EXTT5=
EXTT6=
EXTT7=
EXTT8=
EXTT9=
EXTT10=
PLAYORDER=
